<svg width="227" height="227" viewBox="0 0 227 227" fill="none" xmlns="http://www.w3.org/2000/svg">
<g clip-path="url(#clip0_497_760)">
<path d="M111.323 123.211C111.997 122.588 113.037 122.588 113.711 123.211C118.306 127.469 123.024 131.521 127.762 135.27C126.607 166.304 122.993 196.59 116.895 222.904C115.942 227.032 110.016 227.031 109.061 222.903C102.907 196.414 99.2738 165.87 98.1355 134.581C102.584 131.025 107.008 127.209 111.323 123.211ZM134.923 98.1445C166.085 99.292 196.497 102.924 222.9 109.059C227.033 110.019 227.034 115.933 222.907 116.897L222.909 116.892C196.507 123.019 166.086 126.638 134.902 127.778C131.157 123.185 127.116 118.613 122.875 114.159C122.243 113.498 122.243 112.471 122.875 111.807C127.125 107.336 131.172 102.75 134.923 98.1445ZM90.1414 98.1835C93.8842 102.777 97.9218 107.35 102.159 111.809C102.791 112.47 102.791 113.5 102.159 114.161C97.9349 118.599 93.9092 123.151 90.1765 127.727C59.3198 126.518 29.2398 122.894 3.09839 116.856C-1.02958 115.902 -1.03558 109.971 3.09741 109.022C29.2294 102.992 59.293 99.3796 90.1414 98.1835ZM109.023 3.09662C109.977 -1.0306 115.908 -1.03452 116.857 3.09857C122.928 29.3954 126.563 59.6749 127.746 90.7333C123.014 94.4763 118.301 98.5203 113.709 102.769C113.038 103.392 111.995 103.392 111.325 102.769C107.007 98.7738 102.581 94.9605 98.1345 91.4072C99.28 60.1155 102.913 29.5835 109.023 3.09662Z" fill="#C7C7C7"/>
</g>
<defs>
<clipPath id="clip0_497_760">
<rect width="226.097" height="226.097" fill="white"/>
</clipPath>
</defs>
</svg>
