<svg width="116" height="140" viewBox="0 0 116 140" fill="none" xmlns="http://www.w3.org/2000/svg">
<path d="M103.965 96.2309C103.963 96.2752 103.951 96.3185 103.928 96.3568C103.906 96.3951 103.875 96.4273 103.837 96.4506C103.799 96.4738 103.756 96.4874 103.712 96.4902C103.668 96.4929 103.623 96.4846 103.583 96.4662C103.061 96.2208 102.511 95.9344 101.933 95.607C69.4059 77.1995 42.6242 62.0409 21.5877 50.1311C12.3063 44.8755 9.15616 34.0737 13.6957 24.5602C13.7406 24.467 13.8042 24.3839 13.8824 24.3163C13.9606 24.2486 14.0518 24.1978 14.1503 24.167C14.2488 24.1362 14.3525 24.1261 14.4549 24.1372C14.5573 24.1484 14.6562 24.1806 14.7455 24.2319C29.1266 32.4276 51.0971 44.8685 80.6569 61.5544C86.1373 64.6468 89.681 66.8716 91.2881 68.2288C99.3571 75.036 104.401 85.5556 103.965 96.2309Z" fill="#061E5C"/>
<path d="M102.939 103.739C102.955 103.747 102.967 103.76 102.973 103.775C102.98 103.791 102.981 103.809 102.976 103.825C101.492 109.854 98.4972 115.234 93.9909 119.964C93.8692 120.091 93.7085 120.174 93.5341 120.199C93.3597 120.225 93.1814 120.192 93.0273 120.105C74.0811 109.346 54.7175 98.3829 34.9365 87.2145C33.1586 86.2111 30.8446 84.4034 29.4907 82.7435C25.5088 77.8601 24.1653 72.2795 25.4602 66.0016C25.8022 64.3498 26.3447 62.8486 27.0877 61.498C27.1272 61.427 27.1803 61.3645 27.244 61.3142C27.3077 61.2638 27.3807 61.2265 27.4589 61.2045C27.537 61.1825 27.6188 61.1761 27.6994 61.1858C27.78 61.1955 27.858 61.221 27.9287 61.2609L102.939 103.739Z" fill="url(#paint0_linear_810_393)"/>
<path d="M52.2992 126.63C52.2259 126.598 52.164 126.545 52.1221 126.477C52.0802 126.409 52.0604 126.33 52.0653 126.25C52.0703 126.17 52.0998 126.094 52.1498 126.032C52.1997 125.97 52.2677 125.925 52.3444 125.903C54.3301 125.302 55.6648 125.037 56.9691 124.074C60.9471 121.148 62.5683 117.195 61.8325 112.215C61.8001 111.978 61.7248 111.747 61.6102 111.533L61.053 110.471C61.0315 110.431 61.0187 110.386 61.0155 110.34C61.0122 110.294 61.0186 110.248 61.0341 110.205C61.0497 110.162 61.0741 110.122 61.1058 110.089C61.1375 110.056 61.1758 110.029 61.2182 110.012C61.5102 109.889 61.8966 109.962 62.3775 110.23C63.0651 110.61 70.4897 114.809 84.6515 122.826C85.408 123.255 86.3469 123.723 87.4682 124.231C87.5743 124.279 87.6644 124.356 87.7279 124.454C87.7915 124.551 87.8257 124.664 87.8267 124.781C87.8277 124.897 87.7953 125.011 87.7334 125.109C87.6715 125.208 87.5827 125.287 87.4775 125.336C87.2883 125.427 86.3375 125.907 84.6249 126.774C76.7179 130.781 67.8958 131.544 59.4156 129.318C57.7214 128.873 55.3493 127.977 52.2992 126.63Z" fill="#061E5C"/>
<defs>
<linearGradient id="paint0_linear_810_393" x1="54.3752" y1="53.7505" x2="96.9966" y2="161.633" gradientUnits="userSpaceOnUse">
<stop stop-color="#061E5C"/>
<stop offset="1" stop-color="#6783CB"/>
</linearGradient>
</defs>
</svg>
