<svg width="246" height="58" viewBox="0 0 246 58" fill="none" xmlns="http://www.w3.org/2000/svg">
<g clip-path="url(#clip0_107_157)">
<path d="M70.4882 57.8C67.4482 57.8 64.6215 57.4 62.0082 56.6C59.4482 55.8 57.1015 54.6 54.9682 53C52.8882 51.3467 51.0215 49.32 49.3682 46.92L55.2882 40.12C57.9015 43.8533 60.4082 46.44 62.8082 47.88C65.2082 49.32 68.0615 50.04 71.3682 50.04C73.3948 50.04 75.2348 49.72 76.8882 49.08C78.5415 48.44 79.8482 47.56 80.8082 46.44C81.7682 45.32 82.2482 44.04 82.2482 42.6C82.2482 41.64 82.0882 40.7333 81.7682 39.88C81.4482 39.0267 80.9415 38.2533 80.2482 37.56C79.6082 36.8667 78.7548 36.2267 77.6882 35.64C76.6748 35.0533 75.4748 34.5467 74.0882 34.12C72.7015 33.64 71.1015 33.24 69.2882 32.92C66.4082 32.3333 63.9015 31.56 61.7682 30.6C59.6348 29.64 57.8482 28.44 56.4082 27C54.9682 25.56 53.9015 23.9333 53.2082 22.12C52.5148 20.2533 52.1682 18.1733 52.1682 15.88C52.1682 13.64 52.6482 11.56 53.6082 9.64C54.6215 7.72 55.9815 6.06666 57.6882 4.68C59.4482 3.24 61.5015 2.14666 63.8482 1.4C66.1948 0.599997 68.7282 0.199997 71.4482 0.199997C74.3282 0.199997 76.9682 0.57333 79.3682 1.32C81.7682 2.06666 83.9015 3.18666 85.7682 4.68C87.6348 6.12 89.1815 7.90666 90.4082 10.04L84.3282 16.04C83.2615 14.28 82.0615 12.8133 80.7282 11.64C79.3948 10.4133 77.9282 9.50666 76.3282 8.92C74.7282 8.28 73.0215 7.96 71.2082 7.96C69.1282 7.96 67.3148 8.28 65.7682 8.92C64.2215 9.56 62.9948 10.4667 62.0882 11.64C61.2348 12.76 60.8082 14.0933 60.8082 15.64C60.8082 16.76 61.0215 17.8 61.4482 18.76C61.8748 19.6667 62.5148 20.4933 63.3682 21.24C64.2748 21.9333 65.4748 22.5733 66.9682 23.16C68.4615 23.6933 70.2482 24.1733 72.3282 24.6C75.2615 25.24 77.8748 26.0667 80.1682 27.08C82.4615 28.04 84.4082 29.1867 86.0082 30.52C87.6082 31.8533 88.8082 33.3467 89.6082 35C90.4615 36.6533 90.8882 38.44 90.8882 40.36C90.8882 43.9333 90.0615 47.0267 88.4082 49.64C86.7548 52.2533 84.4082 54.28 81.3682 55.72C78.3282 57.1067 74.7015 57.8 70.4882 57.8ZM114.09 57.8C110.197 57.8 106.703 56.84 103.61 54.92C100.57 53 98.1434 50.3867 96.33 47.08C94.57 43.7733 93.69 40.0667 93.69 35.96C93.69 31.8533 94.57 28.1467 96.33 24.84C98.1434 21.5333 100.57 18.92 103.61 17C106.703 15.08 110.197 14.12 114.09 14.12C117.823 14.12 121.21 14.8933 124.25 16.44C127.343 17.9333 129.69 19.9867 131.29 22.6L126.73 28.2C125.877 26.9733 124.783 25.8533 123.45 24.84C122.117 23.8267 120.703 23.0267 119.21 22.44C117.717 21.8533 116.277 21.56 114.89 21.56C112.33 21.56 110.037 22.2 108.01 23.48C106.037 24.7067 104.463 26.4133 103.29 28.6C102.117 30.7867 101.53 33.24 101.53 35.96C101.53 38.68 102.143 41.1333 103.37 43.32C104.597 45.4533 106.223 47.16 108.25 48.44C110.277 49.72 112.517 50.36 114.97 50.36C116.41 50.36 117.797 50.12 119.13 49.64C120.517 49.16 121.85 48.44 123.13 47.48C124.41 46.52 125.61 45.3467 126.73 43.96L131.29 49.56C129.583 51.96 127.13 53.9333 123.93 55.48C120.783 57.0267 117.503 57.8 114.09 57.8ZM153.143 57.8C149.036 57.8 145.356 56.8667 142.103 55C138.903 53.08 136.369 50.4933 134.503 47.24C132.636 43.9333 131.703 40.1733 131.703 35.96C131.703 31.7467 132.636 28.0133 134.503 24.76C136.369 21.4533 138.903 18.8667 142.103 17C145.356 15.08 149.036 14.12 153.143 14.12C157.196 14.12 160.823 15.08 164.023 17C167.276 18.8667 169.836 21.4533 171.703 24.76C173.569 28.0133 174.503 31.7467 174.503 35.96C174.503 40.1733 173.569 43.9333 171.703 47.24C169.836 50.4933 167.276 53.08 164.023 55C160.823 56.8667 157.196 57.8 153.143 57.8ZM153.143 50.28C155.649 50.28 157.889 49.6667 159.863 48.44C161.836 47.16 163.383 45.4533 164.503 43.32C165.623 41.1333 166.156 38.68 166.103 35.96C166.156 33.1867 165.623 30.7333 164.503 28.6C163.383 26.4133 161.836 24.7067 159.863 23.48C157.889 22.2533 155.649 21.64 153.143 21.64C150.636 21.64 148.369 22.28 146.343 23.56C144.369 24.7867 142.823 26.4933 141.703 28.68C140.583 30.8133 140.049 33.24 140.103 35.96C140.049 38.68 140.583 41.1333 141.703 43.32C142.823 45.4533 144.369 47.16 146.343 48.44C148.369 49.6667 150.636 50.28 153.143 50.28ZM193.401 57.8C190.415 57.8 187.801 57.1067 185.561 55.72C183.375 54.3333 181.668 52.3867 180.441 49.88C179.268 47.3733 178.681 44.3867 178.681 40.92V15H186.921V38.68C186.921 41.1333 187.295 43.2667 188.041 45.08C188.841 46.84 189.961 48.2 191.401 49.16C192.895 50.12 194.681 50.6 196.761 50.6C198.308 50.6 199.721 50.36 201.001 49.88C202.281 49.3467 203.375 48.6267 204.281 47.72C205.241 46.8133 205.988 45.72 206.521 44.44C207.055 43.16 207.321 41.7733 207.321 40.28V15H215.561V57H207.321V48.2L208.761 47.24C208.121 49.2133 207.028 51 205.481 52.6C203.988 54.2 202.201 55.48 200.121 56.44C198.041 57.3467 195.801 57.8 193.401 57.8ZM227.519 57V4.28H235.759V57H227.519ZM218.799 23V15H245.519V23H218.799Z" fill="url(#paint0_linear_107_157)"/>
<path d="M34.3016 23.9105L-0.414684 33.4803L14.288 40.0639L17.5758 55.8608L34.3016 23.9105Z" fill="#81A6E5"/>
</g>
<defs>
<linearGradient id="paint0_linear_107_157" x1="58.5" y1="27" x2="185.5" y2="27" gradientUnits="userSpaceOnUse">
<stop stop-color="#81A6E5"/>
<stop offset="1" stop-color="#B4CAEF"/>
</linearGradient>
<clipPath id="clip0_107_157">
<rect width="245.5" height="58" fill="white"/>
</clipPath>
</defs>
</svg>
